<?xml version="1.0" encoding="UTF-8"?>
<svg width="227px" height="43px" viewBox="0 0 227 43" version="1.1" xmlns="http://www.w3.org/2000/svg" xmlns:xlink="http://www.w3.org/1999/xlink">
    <!-- Generator: Sketch 47.1 (45422) - http://www.bohemiancoding.com/sketch -->
    <title>Group 2</title>
    <desc>Created with Sketch.</desc>
    <defs></defs>
    <g id="Page-1" stroke="none" stroke-width="1" fill="none" fill-rule="evenodd">
        <g id="Group-2">
            <g id="Group-+-Shape" fill-rule="nonzero">
                <g id="Group" fill="#656A7B">
                    <path d="M0,6.42457655 L0,6.42457655 L6.46256183,2.84217094e-14 L6.46256183,34.0541972 L0,27.6296206 L34.2555424,27.6296206 L27.7929806,34.0541972 L27.7929806,2.84217094e-14 L34.2555424,6.42457655 L0,6.42457655 Z M0,2.84217094e-14 L34.2555424,2.84217094e-14 L34.2555424,34.0541972 L0,34.0541972 L0,2.84217094e-14 L0,2.84217094e-14 Z" id="Shape"></path>
                </g>
                <polygon id="Shape" fill="#7C6AFF" points="38.2693522 26.6896552 38.2693522 40.1268032 41.1346761 37.2536063 27.5932203 37.2536063 27.5932203 43 41.1346761 43 44 43 44 40.1268032 44 26.6896552"></polygon>
            </g>
            <path d="M78.7623027,31.9662921 L73.18013,31.9662921 L68.5283194,24.9191011 L64.7758589,24.9191011 L64.7758589,31.9662921 L60,31.9662921 L60,9.94382022 L69.9238626,9.94382022 C75.0408542,9.94382022 78.1110492,12.6808989 78.1110492,17.211236 L78.1110492,17.2741573 C78.1110492,20.8292135 76.2193129,23.0629213 73.4592386,24.1011236 L78.7623027,31.9662921 Z M73.2731662,17.5258427 L73.2731662,17.4629213 C73.2731662,15.3865169 71.846611,14.3168539 69.5207057,14.3168539 L64.7758589,14.3168539 L64.7758589,20.6404494 L69.6137419,20.6404494 C71.9396472,20.6404494 73.2731662,19.3820225 73.2731662,17.5258427 Z M97.1214485,24.0067416 C97.1214485,24.4786517 97.0904364,24.7617978 97.0594243,25.2022472 L85.491922,25.2022472 C85.9571031,27.3730337 87.4456825,28.505618 89.5545032,28.505618 C91.1361188,28.505618 92.2835655,28.0022472 93.5860724,26.7752809 L96.2841226,29.1977528 C94.733519,31.1483146 92.50065,32.3438202 89.4924791,32.3438202 C84.4995357,32.3438202 80.8090994,28.788764 80.8090994,23.6292135 L80.8090994,23.5662921 C80.8090994,18.752809 84.189415,14.788764 89.0272981,14.788764 C94.5784587,14.788764 97.1214485,19.1617978 97.1214485,23.9438202 L97.1214485,24.0067416 Z M92.531662,22.2134831 C92.2525534,20.0741573 91.0120706,18.6269663 89.0272981,18.6269663 C87.0735376,18.6269663 85.8020427,20.0426966 85.4298979,22.2134831 L92.531662,22.2134831 Z M112.813556,26.8382022 L112.813556,26.7752809 C112.813556,23.6921348 110.115506,22.5595506 107.789601,21.7730337 C105.990901,21.1438202 104.409285,20.7033708 104.409285,19.7595506 L104.409285,19.6966292 C104.409285,19.0359551 104.998514,18.5325843 106.145961,18.5325843 C107.355432,18.5325843 108.999071,19.1303371 110.642711,20.105618 L112.441411,16.8022472 C110.642711,15.5752809 108.347818,14.8516854 106.238997,14.8516854 C102.889694,14.8516854 100.160631,16.7707865 100.160631,20.2 L100.160631,20.2629213 C100.160631,23.5348315 102.796657,24.6359551 105.122563,25.3280899 C106.952275,25.894382 108.564903,26.2404494 108.564903,27.2786517 L108.564903,27.341573 C108.564903,28.0966292 107.944661,28.6 106.58013,28.6 C105.029526,28.6 103.13779,27.9078652 101.33909,26.5865169 L99.3233055,29.7325843 C101.525162,31.494382 104.130176,32.2808989 106.456082,32.2808989 C110.053482,32.2808989 112.813556,30.5820225 112.813556,26.8382022 Z M133.653668,23.5662921 C133.653668,29.1977528 130.025255,32.2808989 126.086722,32.2808989 C123.574745,32.2808989 122.024141,31.1168539 120.907707,29.7640449 L120.907707,37 L116.193872,37 L116.193872,15.1033708 L120.907707,15.1033708 L120.907707,17.5258427 C122.055153,15.952809 123.636769,14.788764 126.086722,14.788764 C129.963231,14.788764 133.653668,17.8719101 133.653668,23.5033708 L133.653668,23.5662921 Z M128.939833,23.5662921 L128.939833,23.5033708 C128.939833,20.7033708 127.079109,18.847191 124.877252,18.847191 C122.675395,18.847191 120.845682,20.7033708 120.845682,23.5033708 L120.845682,23.5662921 C120.845682,26.3662921 122.675395,28.2224719 124.877252,28.2224719 C127.079109,28.2224719 128.939833,26.3977528 128.939833,23.5662921 Z M154.307707,23.5662921 C154.307707,28.411236 150.46221,32.3438202 145.283194,32.3438202 C140.13519,32.3438202 136.320706,28.4741573 136.320706,23.6292135 L136.320706,23.5662921 C136.320706,18.7213483 140.166202,14.788764 145.345218,14.788764 C150.493222,14.788764 154.307707,18.658427 154.307707,23.5033708 L154.307707,23.5662921 Z M149.655896,23.6292135 L149.655896,23.5662921 C149.655896,21.0808989 147.888208,18.9101124 145.283194,18.9101124 C142.585144,18.9101124 140.972516,21.0179775 140.972516,23.5033708 L140.972516,23.5662921 C140.972516,26.0516854 142.740204,28.2224719 145.345218,28.2224719 C148.043268,28.2224719 149.655896,26.1146067 149.655896,23.6292135 Z M172.945961,31.9662921 L172.945961,21.0494382 C172.945961,17.1797753 170.868152,14.788764 167.301764,14.788764 C164.913835,14.788764 163.518292,16.0786517 162.432869,17.494382 L162.432869,15.1033708 L157.719034,15.1033708 L157.719034,31.9662921 L162.432869,31.9662921 L162.432869,22.5595506 C162.432869,20.294382 163.580316,19.1303371 165.379016,19.1303371 C167.177716,19.1303371 168.232126,20.294382 168.232126,22.5595506 L168.232126,31.9662921 L172.945961,31.9662921 Z M193.75506,31.9662921 L189.041226,31.9662921 L189.041226,29.5438202 C187.893779,31.1168539 186.312163,32.2808989 183.86221,32.2808989 C179.985701,32.2808989 176.295265,29.1977528 176.295265,23.5662921 L176.295265,23.5033708 C176.295265,17.8719101 179.923677,14.788764 183.86221,14.788764 C186.374188,14.788764 187.924791,15.952809 189.041226,17.305618 L189.041226,9 L193.75506,9 L193.75506,31.9662921 Z M189.10325,23.5662921 L189.10325,23.5033708 C189.10325,20.7033708 187.273538,18.847191 185.071681,18.847191 C182.869824,18.847191 181.009099,20.6719101 181.009099,23.5033708 L181.009099,23.5662921 C181.009099,26.3662921 182.869824,28.2224719 185.071681,28.2224719 C187.273538,28.2224719 189.10325,26.3662921 189.10325,23.5662921 Z M213.478737,24.0067416 C213.478737,24.4786517 213.447725,24.7617978 213.416713,25.2022472 L201.849211,25.2022472 C202.314392,27.3730337 203.802971,28.505618 205.911792,28.505618 C207.493408,28.505618 208.640854,28.0022472 209.943361,26.7752809 L212.641411,29.1977528 C211.090808,31.1483146 208.857939,32.3438202 205.849768,32.3438202 C200.856825,32.3438202 197.166388,28.788764 197.166388,23.6292135 L197.166388,23.5662921 C197.166388,18.752809 200.546704,14.788764 205.384587,14.788764 C210.935747,14.788764 213.478737,19.1617978 213.478737,23.9438202 L213.478737,24.0067416 Z M208.888951,22.2134831 C208.609842,20.0741573 207.369359,18.6269663 205.384587,18.6269663 C203.430826,18.6269663 202.159331,20.0426966 201.787187,22.2134831 L208.888951,22.2134831 Z M227,19.7910112 L227,14.788764 C224.208914,14.6629213 222.65831,16.1730337 221.696936,18.5011236 L221.696936,15.1033708 L216.983101,15.1033708 L216.983101,31.9662921 L221.696936,31.9662921 L221.696936,25.7370787 C221.696936,21.7101124 223.619684,19.7910112 226.751903,19.7910112 L227,19.7910112 Z" id="Responder" fill="#656A7B"></path>
        </g>
    </g>
</svg>