<?xml version="1.0" encoding="UTF-8"?>
<svg width="227px" height="43px" viewBox="0 0 227 43" version="1.1" xmlns="http://www.w3.org/2000/svg" xmlns:xlink="http://www.w3.org/1999/xlink">
    <!-- Generator: Sketch 47.1 (45422) - http://www.bohemiancoding.com/sketch -->
    <title>Untitled</title>
    <desc>Created with Sketch.</desc>
    <defs></defs>
    <g id="Page-1" stroke="none" stroke-width="1" fill="none" fill-rule="evenodd">
        <g id="logo" fill-rule="nonzero">
            <g id="Group-+-Shape">
                <g id="Group" fill="#656A7B">
                    <path d="M0,6.42457655 L0,6.42457655 L6.46256183,2.84217094e-14 L6.46256183,34.0541972 L0,27.6296206 L34.2555424,27.6296206 L27.7929806,34.0541972 L27.7929806,2.84217094e-14 L34.2555424,6.42457655 L0,6.42457655 Z M0,2.84217094e-14 L34.2555424,2.84217094e-14 L34.2555424,34.0541972 L0,34.0541972 L0,2.84217094e-14 L0,2.84217094e-14 Z" id="Shape"></path>
                </g>
                <polygon id="Shape" fill="#7C6AFF" points="38.2693522 26.6896552 38.2693522 40.1268032 41.1346761 37.2536063 27.5932203 37.2536063 27.5932203 43 41.1346761 43 44 43 44 40.1268032 44 26.6896552"></polygon>
            </g>
        </g>
        <path d="M60.712,18.944 L64.36,18.944 C65.618673,18.944 66.647996,18.6293365 67.448,18 C68.248004,17.3706635 68.648,16.3733402 68.648,15.008 C68.648,13.6426598 68.2320042,12.6613363 67.4,12.064 C66.5679958,11.4666637 65.5866723,11.168 64.456,11.168 L60.712,11.168 L60.712,18.944 Z M69.096,32 L64.488,22.688 L60.712,22.688 L60.712,32 L55.464,32 L55.464,7.52 L65.032,7.52 C66.9306762,7.52 68.5733264,7.81866368 69.96,8.416 C72.6693469,9.61067264 74.024,11.711985 74.024,14.72 C74.024,17.9626829 72.4453491,20.2026605 69.288,21.44 L69.288,21.504 L74.76,32 L69.096,32 Z M88.168,21.696 L88.168,21.472 C87.9973325,18.8906538 86.9840093,17.6 85.128,17.6 C83.1013232,17.6 81.9600013,18.9653197 81.704,21.696 L88.168,21.696 Z M93.192,27.008 C92.9359987,28.6933418 92.0933405,30.0213285 90.664,30.992 C89.2346595,31.9626715 87.3680115,32.448 85.064,32.448 C82.3333197,32.448 80.2373406,31.6373414 78.776,30.016 C77.3146594,28.3946586 76.584,26.1866806 76.584,23.392 C76.584,20.72532 77.3413258,18.5653416 78.856,16.912 C80.3706742,15.2586584 82.46132,14.432 85.128,14.432 C87.9013472,14.432 89.9653266,15.2373253 91.32,16.848 C92.6746734,18.4586747 93.352,20.59732 93.352,23.264 L93.352,24.608 L81.704,24.608 C81.9173344,27.5520147 83.090656,29.024 85.224,29.024 C86.7813411,29.024 87.7733312,28.3520067 88.2,27.008 L93.192,27.008 Z M110.088,19.616 L105.608,19.616 C105.565333,19.0399971 105.330669,18.5706685 104.904,18.208 C104.477331,17.8453315 103.89067,17.664 103.144,17.664 C102.375996,17.664 101.784002,17.8293317 101.368,18.16 C100.951998,18.4906683 100.744,18.922664 100.744,19.456 C100.744,20.4373382 101.405327,21.0133325 102.728,21.184 L105.64,21.568 C108.946683,22.0160022 110.6,23.7013187 110.6,26.624 C110.6,28.4800093 109.91734,29.9199949 108.552,30.944 C107.18666,31.9680051 105.384011,32.48 103.144,32.48 C100.711988,32.48 98.8826728,31.9786717 97.656,30.976 C96.4293272,29.9733283 95.7520006,28.6506749 95.624,27.008 L100.296,27.008 C100.381334,28.4800074 101.341324,29.216 103.176,29.216 C104.008004,29.216 104.669331,29.0560016 105.16,28.736 C105.650669,28.4159984 105.896,27.9466698 105.896,27.328 C105.896,26.794664 105.746668,26.394668 105.448,26.128 C105.149332,25.861332 104.616004,25.6746672 103.848,25.568 L101.096,25.184 C97.7466499,24.7146643 96.072,23.0080147 96.072,20.064 C96.072,18.463992 96.6799939,17.1253387 97.896,16.048 C99.1120061,14.9706613 100.871988,14.432 103.176,14.432 C105.330677,14.432 106.994661,14.9013286 108.168,15.84 C109.341339,16.7786714 109.981333,18.0373254 110.088,19.616 Z M118.792,24.352 C118.792,25.760007 119.090664,26.8906624 119.688,27.744 C120.285336,28.5973376 121.159994,29.024 122.312,29.024 C123.442672,29.024 124.311997,28.5493381 124.92,27.6 C125.528003,26.6506619 125.832,25.2586758 125.832,23.424 C125.832,19.7759818 124.648012,17.952 122.28,17.952 C121.255995,17.952 120.41867,18.3573293 119.768,19.168 C119.11733,19.9786707 118.792,21.087993 118.792,22.496 L118.792,24.352 Z M113.768,38.016 L113.768,14.848 L118.664,14.848 L118.664,17.632 L118.728,17.632 C119.176002,16.757329 119.869329,16.0106698 120.808,15.392 C121.746671,14.7733302 122.855994,14.464 124.136,14.464 C126.248011,14.464 127.92266,15.1893261 129.16,16.64 C130.39734,18.0906739 131.016,20.3306515 131.016,23.36 C131.016,26.1973475 130.34934,28.415992 129.016,30.016 C127.68266,31.616008 125.896011,32.416 123.656,32.416 C121.415989,32.416 119.848004,31.5626752 118.952,29.856 L118.856,29.856 L118.856,38.016 L113.768,38.016 Z M142.312,32.448 C139.602653,32.448 137.480008,31.6426747 135.944,30.032 C134.407992,28.4213253 133.64,26.2186806 133.64,23.424 C133.64,20.6079859 134.418659,18.4053413 135.976,16.816 C137.533341,15.2266587 139.655987,14.432 142.344,14.432 C144.989347,14.432 147.095992,15.2266587 148.664,16.816 C150.232008,18.4053413 151.016,20.6079859 151.016,23.424 C151.016,26.1973472 150.216008,28.3946586 148.616,30.016 C147.015992,31.6373414 144.91468,32.448 142.312,32.448 Z M142.344,17.856 C140.039988,17.856 138.888,19.7119814 138.888,23.424 C138.888,27.157352 140.039988,29.024 142.344,29.024 C144.605345,29.024 145.736,27.157352 145.736,23.424 C145.736,19.7119814 144.605345,17.856 142.344,17.856 Z M165.512,32 L165.512,21.984 C165.512,20.575993 165.341335,19.6266691 165,19.136 C164.530664,18.4746634 163.794672,18.144 162.792,18.144 C161.661328,18.144 160.80267,18.4853299 160.216,19.168 C159.62933,19.8506701 159.336,20.821327 159.336,22.08 L159.336,32 L154.248,32 L154.248,14.848 L159.144,14.848 L159.144,17.664 L159.208,17.664 C160.338672,15.5519894 162.194654,14.496 164.776,14.496 C166.802677,14.496 168.279995,15.0186614 169.208,16.064 C170.136005,17.1093386 170.6,18.7093226 170.6,20.864 L170.6,32 L165.512,32 Z M186.152,24.704 L186.152,22.656 C186.152,21.1626592 185.84267,20.0053374 185.224,19.184 C184.60533,18.3626626 183.762672,17.952 182.696,17.952 C181.522661,17.952 180.616003,18.4159954 179.976,19.344 C179.335997,20.2720046 179.016,21.6533242 179.016,23.488 C179.016,27.1786851 180.199988,29.024 182.568,29.024 C183.698672,29.024 184.578664,28.624004 185.208,27.824 C185.837336,27.023996 186.152,25.9840064 186.152,24.704 Z M191.176,6.784 L191.176,32 L186.312,32 L186.312,29.472 L186.248,29.472 C185.074661,31.4560099 183.368011,32.448 181.128,32.448 C178.802655,32.448 177.00534,31.7120074 175.736,30.24 C174.46666,28.7679926 173.832,26.5706813 173.832,23.648 C173.832,20.7253187 174.525326,18.4693413 175.912,16.88 C177.298674,15.2906587 179.101322,14.496 181.32,14.496 C182.408005,14.496 183.362663,14.7306643 184.184,15.2 C185.005337,15.6693357 185.618665,16.3093293 186.024,17.12 L186.088,17.12 L186.088,6.784 L191.176,6.784 Z M205.992,21.696 L205.992,21.472 C205.821332,18.8906538 204.808009,17.6 202.952,17.6 C200.925323,17.6 199.784001,18.9653197 199.528,21.696 L205.992,21.696 Z M211.016,27.008 C210.759999,28.6933418 209.91734,30.0213285 208.488,30.992 C207.05866,31.9626715 205.192012,32.448 202.888,32.448 C200.15732,32.448 198.061341,31.6373414 196.6,30.016 C195.138659,28.3946586 194.408,26.1866806 194.408,23.392 C194.408,20.72532 195.165326,18.5653416 196.68,16.912 C198.194674,15.2586584 200.28532,14.432 202.952,14.432 C205.725347,14.432 207.789327,15.2373253 209.144,16.848 C210.498673,18.4586747 211.176,20.59732 211.176,23.264 L211.176,24.608 L199.528,24.608 C199.741334,27.5520147 200.914656,29.024 203.048,29.024 C204.605341,29.024 205.597331,28.3520067 206.024,27.008 L211.016,27.008 Z M214.44,32 L214.44,14.848 L219.24,14.848 L219.24,18.464 L219.304,18.464 C219.773336,17.2266605 220.530661,16.2666701 221.576,15.584 C222.621339,14.9013299 223.751994,14.56 224.968,14.56 L225.256,14.56 L225.256,19.168 L224.36,19.168 C222.738659,19.168 221.522671,19.4986634 220.712,20.16 C219.901329,20.8213366 219.496,21.9413254 219.496,23.52 L219.496,32 L214.44,32 Z" id="Responder" fill="#111133"></path>
    </g>
</svg>